<?xml version="1.0" encoding="UTF-8"?>
<svg width="62px" height="72px" viewBox="0 0 62 72" version="1.1" xmlns="http://www.w3.org/2000/svg" xmlns:xlink="http://www.w3.org/1999/xlink">
    <!-- Generator: Sketch 51.1 (57501) - http://www.bohemiancoding.com/sketch -->
    <title>Illustrations/Create</title>
    <desc>Created with Sketch.</desc>
    <defs>
        <path d="M41.1481481,38.8518519 L41.1481481,29.8981481 C41.1481481,29.2640434 40.6341047,28.75 40,28.75 C39.3658953,28.75 38.8518519,29.2640434 38.8518519,29.8981481 L38.8518519,38.8518519 L29.8981481,38.8518519 C29.2640434,38.8518519 28.75,39.3658953 28.75,40 C28.75,40.6341047 29.2640434,41.1481481 29.8981481,41.1481481 L38.8518519,41.1481481 L38.8518519,50.1018519 C38.8518519,50.7359566 39.3658953,51.25 40,51.25 C40.6341047,51.25 41.1481481,50.7359566 41.1481481,50.1018519 L41.1481481,41.1481481 L50.1018519,41.1481481 C50.7359566,41.1481481 51.25,40.6341047 51.25,40 C51.25,39.3658953 50.7359566,38.8518519 50.1018519,38.8518519 L41.1481481,38.8518519 Z M54.9259259,4 L54.9259259,16.375 C54.9259259,18.8602814 56.9406446,20.875 59.4259259,20.875 L71,20.875 L71,72.5 C71,74.4329966 69.4329966,76 67.5,76 L12.5,76 C10.5670034,76 9,74.4329966 9,72.5 L9,7.5 C9,5.56700338 10.5670034,4 12.5,4 L54.9259259,4 Z M56.9259259,4.41806899 L70.1986747,18.875 L59.4259259,18.875 C58.0452141,18.875 56.9259259,17.7557119 56.9259259,16.375 L56.9259259,4.41806899 Z" id="path-1"></path>
    </defs>
    <g id="Symbols" stroke="none" stroke-width="1" fill="none" fill-rule="evenodd">
        <g id="Components/Prompt" transform="translate(-121.000000, -120.000000)">
            <g id="Group">
                <g id="Create" transform="translate(0.000000, 76.000000)">
                    <g id="Illustrations/Create" transform="translate(112.000000, 40.000000)">
                        <mask id="mask-2" fill="white">
                            <use xlink:href="#path-1"></use>
                        </mask>
                        <use id="Combined-Shape" fill="#C1DDF8" fill-rule="evenodd" xlink:href="#path-1"></use>
                    </g>
                </g>
            </g>
        </g>
    </g>
</svg>