<?xml version="1.0" encoding="UTF-8"?>
<svg width="80px" height="80px" viewBox="0 0 80 80" version="1.1" xmlns="http://www.w3.org/2000/svg" xmlns:xlink="http://www.w3.org/1999/xlink">
    <!-- Generator: Sketch 51.1 (57501) - http://www.bohemiancoding.com/sketch -->
    <title>Illustrations/Upload</title>
    <desc>Created with Sketch.</desc>
    <defs></defs>
    <g id="Illustrations/Upload" stroke="none" stroke-width="1" fill="none" fill-rule="evenodd">
        <path d="M58.0703125,8.8515625 C63.6015902,12.0390784 67.9726402,16.3984098 71.1835938,21.9296875 C74.3945473,27.4609652 76,33.4843424 76,40 C76,46.5156576 74.3945473,52.5390348 71.1835938,58.0703125 C67.9726402,63.6015902 63.6015902,67.9726402 58.0703125,71.1835938 C52.5390348,74.3945473 46.5156576,76 40,76 C33.4843424,76 27.4609652,74.3945473 21.9296875,71.1835938 C16.3984098,67.9726402 12.0273598,63.6015902 8.81640625,58.0703125 C5.6054527,52.5390348 4,46.5156576 4,40 C4,33.4843424 5.6054527,27.4609652 8.81640625,21.9296875 C12.0273598,16.3984098 16.3984098,12.0273598 21.9296875,8.81640625 C27.4609652,5.6054527 33.4843424,4 40,4 C46.5156576,4 52.5390348,5.61717133 58.0703125,8.8515625 Z M37.5853659,58.5482804 C37.5853659,59.2373415 37.8414609,59.8266612 38.3536585,60.3162572 C38.8658562,60.8058532 39.4695087,61.0325146 40.1646341,60.9962483 C40.7865885,60.9599819 41.317071,60.7061211 41.7560976,60.2346583 C42.1951241,59.7631954 42.4146341,59.219208 42.4146341,58.6026797 L42.4146341,27.4318892 L53.8292683,39.1821349 C54.3048804,39.6535977 54.8719479,39.898392 55.5304878,39.9165252 C56.1890277,39.9346584 56.7560952,39.707997 57.2317073,39.2365341 C57.743905,38.7650713 58,38.1848181 58,37.495757 C58,36.8792287 57.78049,36.3352413 57.3414634,35.8637784 L41.7012195,19.76159 C41.2256074,19.2538608 40.6493936,19 39.972561,19 C39.2957283,19 38.7195146,19.2538608 38.2439024,19.76159 L22.6585366,35.7549799 C22.21951,36.2627091 22,36.8429623 22,37.495757 C22,38.1485517 22.2469487,38.7016056 22.7408537,39.1549352 C23.2347586,39.6082649 23.8109723,39.8349263 24.4695122,39.8349263 C25.1280521,39.8349263 25.6951196,39.5810655 26.1707317,39.0733363 L37.5853659,27.3230907 L37.5853659,58.5482804 Z" id="Combined-Shape" fill="#3D90E3"></path>
    </g>
</svg>