<svg width="216" height="211" xmlns="http://www.w3.org/2000/svg" xmlns:xlink="http://www.w3.org/1999/xlink">
  <defs>
    <filter x="-20%" y="-12.5%" width="140%" height="140%" filterUnits="objectBoundingBox" id="a">
      <feOffset dy="10" in="SourceAlpha" result="shadowOffsetOuter1"/>
      <feGaussianBlur stdDeviation="15" in="shadowOffsetOuter1" result="shadowBlurOuter1"/>
      <feColorMatrix values="0 0 0 0 0.407843137 0 0 0 0 0.450980392 0 0 0 0 0.556862745 0 0 0 0.3 0" in="shadowBlurOuter1" result="shadowMatrixOuter1"/>
      <feMerge>
        <feMergeNode in="shadowMatrixOuter1"/>
        <feMergeNode in="SourceGraphic"/>
      </feMerge>
    </filter>
    <path d="M6 0h68a6 6 0 0 1 6 6v84a6 6 0 0 1-6 6H6a6 6 0 0 1-6-6V6a6 6 0 0 1 6-6z" id="c"/>
    <filter x="-32.5%" y="-22.9%" width="165%" height="154.2%" filterUnits="objectBoundingBox" id="b">
      <feOffset dy="4" in="SourceAlpha" result="shadowOffsetOuter1"/>
      <feGaussianBlur stdDeviation="8" in="shadowOffsetOuter1" result="shadowBlurOuter1"/>
      <feColorMatrix values="0 0 0 0 0.407843137 0 0 0 0 0.450980392 0 0 0 0 0.556862745 0 0 0 0.2 0" in="shadowBlurOuter1"/>
    </filter>
    <linearGradient x1="100%" y1="100%" x2="0%" y2="0%" id="d">
      <stop stop-color="#3F82FF" offset="0%"/>
      <stop stop-color="#19A2FF" offset="50%"/>
      <stop stop-color="#19CDFF" offset="100%"/>
    </linearGradient>
    <linearGradient x1="0%" y1="0%" y2="100%" id="e">
      <stop stop-color="#FF8563" offset="0%"/>
      <stop stop-color="#FF6663" offset="50.02%"/>
      <stop stop-color="#FF6371" offset="100%"/>
    </linearGradient>
    <linearGradient x1="0%" y1="0%" y2="100%" id="f">
      <stop stop-color="#798EFF" offset="0%"/>
      <stop stop-color="#1EACF1" offset="100%"/>
    </linearGradient>
    <linearGradient x1="20.4%" y1="-3.48%" x2="126.87%" y2="113.92%" id="g">
      <stop stop-color="#2FE797" offset="0%"/>
      <stop stop-color="#29D3B9" offset="100%"/>
    </linearGradient>
    <path d="M6 0h27.37c2.55 0 5.03.83 7.06 2.37l4.7 3.56A11.7 11.7 0 0 0 52.2 8.3H92a6 6 0 0 1 6 6V66a6 6 0 0 1-6 6H6a6 6 0 0 1-6-6V6a6 6 0 0 1 6-6z" id="h"/>
    <filter x="-21.9%" y="-20.1%" width="143.9%" height="159.7%" filterUnits="objectBoundingBox" id="i">
      <feOffset dy="7" in="SourceAlpha" result="shadowOffsetOuter1"/>
      <feGaussianBlur stdDeviation="6" in="shadowOffsetOuter1" result="shadowBlurOuter1"/>
      <feColorMatrix values="0 0 0 0 0.31292517 0 0 0 0 0.262351405 0 0 0 0 0.186490758 0 0 0 0.0797101449 0" in="shadowBlurOuter1"/>
    </filter>
    <linearGradient x1="24.41%" y1="8.64%" x2="108.67%" y2="104.92%" id="m">
      <stop stop-color="#FFEACA" offset="0%"/>
      <stop stop-color="#F1D6AD" offset="100%"/>
    </linearGradient>
    <path d="M6 8h86a6 6 0 0 1 6 6v52a6 6 0 0 1-6 6H6a6 6 0 0 1-6-6V14a6 6 0 0 1 6-6z" id="l"/>
    <filter x="-11.2%" y="-15.6%" width="122.4%" height="134.4%" filterUnits="objectBoundingBox" id="k">
      <feOffset dy="1" in="SourceAlpha" result="shadowOffsetOuter1"/>
      <feGaussianBlur stdDeviation="3.5" in="shadowOffsetOuter1" result="shadowBlurOuter1"/>
      <feColorMatrix values="0 0 0 0 0.863945578 0 0 0 0 0.733037915 0 0 0 0 0.536676421 0 0 0 1 0" in="shadowBlurOuter1"/>
    </filter>
    <linearGradient x1="100%" y1="100%" x2="0%" y2="0%" id="n">
      <stop stop-color="#4F7DFF" offset="0%"/>
      <stop stop-color="#7C4FFF" offset="50%"/>
      <stop stop-color="#9C4FFF" offset="100%"/>
    </linearGradient>
    <linearGradient x1="2.04%" y1="2.04%" y2="100%" id="o">
      <stop stop-color="#0FDE7B" offset="0%"/>
      <stop stop-color="#0FDEA0" offset="49.96%"/>
      <stop stop-color="#0FDEB1" offset="100%"/>
    </linearGradient>
    <path d="M6 0h68a6 6 0 0 1 6 6v48a6 6 0 0 1-6 6H6a6 6 0 0 1-6-6V6a6 6 0 0 1 6-6z" id="q"/>
    <filter x="-32.5%" y="-36.7%" width="165%" height="186.7%" filterUnits="objectBoundingBox" id="p">
      <feOffset dy="4" in="SourceAlpha" result="shadowOffsetOuter1"/>
      <feGaussianBlur stdDeviation="8" in="shadowOffsetOuter1" result="shadowBlurOuter1"/>
      <feColorMatrix values="0 0 0 0 0.407843137 0 0 0 0 0.450980392 0 0 0 0 0.556862745 0 0 0 0.2 0" in="shadowBlurOuter1"/>
    </filter>
  </defs>
  <g filter="url(#a)" transform="translate(-530 -133)" fill="none" fill-rule="evenodd">
    <g transform="translate(611 153)">
      <use fill="#000" filter="url(#b)" xlink:href="#c"/>
      <use fill="#FFF" xlink:href="#c"/>
      <path d="M12 14a2 2 0 1 1 0-4 2 2 0 0 1 0 4zm0 8a2 2 0 1 1 0-4 2 2 0 0 1 0 4zm0 8a2 2 0 1 1 0-4 2 2 0 0 1 0 4zm0 8a2 2 0 1 1 0-4 2 2 0 0 1 0 4zm0 8a2 2 0 1 1 0-4 2 2 0 0 1 0 4zm0 8a2 2 0 1 1 0-4 2 2 0 0 1 0 4zm0 8a2 2 0 1 1 0-4 2 2 0 0 1 0 4zm0 8a2 2 0 1 1 0-4 2 2 0 0 1 0 4zm0 8a2 2 0 1 1 0-4 2 2 0 0 1 0 4z" fill="#E1E4EC"/>
      <path d="M32 10h12a2 2 0 1 1 0 4H32a2 2 0 1 1 0-4z" fill="#E0E4EC"/>
      <rect fill="url(#d)" x="20" y="42" width="4" height="4" rx="2"/>
      <rect fill="#E1E4EC" x="30" y="18" width="8" height="4" rx="2"/>
      <rect fill="#E1E4EC" x="54" y="18" width="12" height="4" rx="2"/>
      <rect fill="url(#e)" opacity=".6" x="40" y="18" width="12" height="4" rx="2"/>
      <rect fill="url(#e)" opacity=".6" x="38" y="50" width="4" height="4" rx="2"/>
      <path d="M32 58h28a2 2 0 1 1 0 4H32a2 2 0 1 1 0-4z" fill="#E1E4EC"/>
      <rect fill="url(#d)" x="20" y="18" width="8" height="4" rx="2"/>
      <rect fill="url(#d)" x="20" y="10" width="8" height="4" rx="2"/>
      <rect fill="url(#f)" x="20" y="58" width="8" height="4" rx="2"/>
      <rect fill="#E0E4EC" x="20" y="50" width="16" height="4" rx="2"/>
      <rect fill="#E1E4EC" x="30" y="26" width="12" height="4" rx="2"/>
      <rect fill="url(#g)" opacity=".6" x="44" y="26" width="12" height="4" rx="2"/>
      <rect fill="url(#g)" opacity=".6" x="30" y="34" width="12" height="4" rx="2"/>
      <rect fill="url(#g)" opacity=".6" x="26" y="42" width="12" height="4" rx="2"/>
    </g>
    <g transform="translate(560 200)">
      <mask id="j" fill="#fff">
        <use xlink:href="#h"/>
      </mask>
      <use fill="#000" filter="url(#i)" xlink:href="#h"/>
      <use fill="#FBE3BF" xlink:href="#h"/>
      <g mask="url(#j)">
        <use fill="#000" filter="url(#k)" xlink:href="#l"/>
        <use fill="url(#m)" xlink:href="#l"/>
      </g>
      <path d="M10 30h36a2 2 0 0 1 2 2v30a2 2 0 0 1-2 2H10a2 2 0 0 1-2-2V32c0-1.1.9-2 2-2z" fill="url(#e)" opacity=".7"/>
      <rect fill="#F5DBB4" opacity=".6" style="mix-blend-mode:multiply" x="14" y="20" width="34" height="4" rx="2"/>
      <rect fill="#F5DBB4" opacity=".6" style="mix-blend-mode:multiply" x="8" y="20" width="4" height="4" rx="2"/>
      <path d="M52 30h36a2 2 0 0 1 2 2v12a2 2 0 0 1-2 2H52a2 2 0 0 1-2-2V32c0-1.1.9-2 2-2z" fill="url(#n)" opacity=".6"/>
      <path d="M52 48h36a2 2 0 0 1 2 2v12a2 2 0 0 1-2 2H52a2 2 0 0 1-2-2V50c0-1.1.9-2 2-2z" fill="url(#o)" opacity=".7"/>
    </g>
    <g transform="translate(632 236)">
      <use fill="#000" filter="url(#p)" xlink:href="#q"/>
      <use fill="#FFF" xlink:href="#q"/>
      <path d="M28.5 19.5l5 5m7-5l1-7m6 15l7-1" stroke="#E1E4EC" stroke-linecap="round"/>
      <path d="M48 46H32v3a4 4 0 0 1-4 4v-7.72c0-2.7 1.56-5.14 4-6.28h16a4 4 0 0 1 4 4v10a6.93 6.93 0 0 1-4-6.28V46z" fill="url(#n)"/>
      <path d="M32 46c0-13.25 3.58-24 8-24s8 10.75 8 24H32z" fill="#FFF"/>
      <path d="M32 46c0-13.25 3.58-24 8-24s8 10.75 8 24H32z" fill="url(#g)" opacity=".8"/>
      <ellipse fill="url(#n)" cx="40" cy="46" rx="2" ry="7"/>
      <ellipse fill="url(#d)" style="mix-blend-mode:multiply" cx="40.01" cy="33" rx="3.01" ry="3"/>
      <rect fill="url(#n)" opacity=".7" x="41" y="7" width="16" height="4" rx="2"/>
      <rect fill="url(#d)" x="57" y="24" width="12" height="4" rx="2"/>
      <rect fill="url(#e)" opacity=".6" x="8" y="16" width="18" height="4" rx="2"/>
    </g>
  </g>
</svg>