<?xml version="1.0" encoding="UTF-8"?>
<svg width="24px" height="24px" viewBox="0 0 24 24" version="1.1" xmlns="http://www.w3.org/2000/svg" xmlns:xlink="http://www.w3.org/1999/xlink">
    <!-- Generator: Sketch 51.1 (57501) - http://www.bohemiancoding.com/sketch -->
    <title>Icons/Complete</title>
    <desc>Created with Sketch.</desc>
    <defs></defs>
    <g id="Icons/Complete" stroke="none" stroke-width="1" fill="none" fill-rule="evenodd">
        <path d="M17.0195312,3.34765625 C18.5559973,4.23307734 19.7701778,5.44400273 20.6621094,6.98046875 C21.5540409,8.51693477 22,10.1900951 22,12 C22,13.8099049 21.5540409,15.4830652 20.6621094,17.0195312 C19.7701778,18.5559973 18.5559973,19.7701778 17.0195312,20.6621094 C15.4830652,21.5540409 13.8099049,22 12,22 C10.1900951,22 8.51693477,21.5540409 6.98046875,20.6621094 C5.44400273,19.7701778 4.22982217,18.5559973 3.33789062,17.0195312 C2.44595908,15.4830652 2,13.8099049 2,12 C2,10.1900951 2.44595908,8.51693477 3.33789062,6.98046875 C4.22982217,5.44400273 5.44400273,4.22982217 6.98046875,3.33789062 C8.51693477,2.44595908 10.1900951,2 12,2 C13.8099049,2 15.4830652,2.44921426 17.0195312,3.34765625 Z M16.6369318,8.06586399 L10.0961941,14.6066017 L7.09099026,11.6013979 C6.79809704,11.3085047 6.3232233,11.3085047 6.03033009,11.6013979 C5.73743687,11.8942911 5.73743687,12.3691649 6.03033009,12.6620581 L9.56586399,16.197592 C9.85875721,16.4904852 10.3336309,16.4904852 10.6265242,16.197592 L17.697592,9.12652416 C17.9904852,8.83363094 17.9904852,8.35875721 17.697592,8.06586399 C17.4046988,7.77297077 16.929825,7.77297077 16.6369318,8.06586399 Z" id="Combined-Shape" fill="#5AC461"></path>
    </g>
</svg>